<svg xmlns="http://www.w3.org/2000/svg" viewBox="0 0 120 120">
  <defs>
    <linearGradient id="g1" x1="0%" y1="0%" x2="100%" y2="100%">
      <stop offset="0%" stop-color="#f59e0b"/>
      <stop offset="100%" stop-color="#fbbf24"/>
    </linearGradient>
    <linearGradient id="g2" x1="0%" y1="0%" x2="100%" y2="100%">
      <stop offset="0%" stop-color="#38bdf8"/>
      <stop offset="100%" stop-color="#0ea5e9"/>
    </linearGradient>
    <linearGradient id="g3" x1="0%" y1="0%" x2="100%" y2="100%">
      <stop offset="0%" stop-color="#a78bfa"/>
      <stop offset="100%" stop-color="#7c3aed"/>
    </linearGradient>
  </defs>
  <rect width="120" height="120" rx="22" fill="#ffffff"/>
  <rect x="8" y="8" width="48" height="48" rx="12" fill="url(#g1)"/>
  <rect x="64" y="8" width="48" height="48" rx="12" fill="url(#g2)"/>
  <rect x="8" y="64" width="48" height="48" rx="12" fill="url(#g3)"/>
  <rect x="64" y="64" width="48" height="48" rx="12" fill="#ffffff" opacity="0.95"/>
  <path d="M60 38c-12-18-34-9-34 11 0 14 12 23 20 36 8-13 20-22 20-36 0-20-22-29-20-11z" fill="#ffffff"/>
  <path d="M64 45c-6-8-17-5-17 4 0 6 6 10 9 15 3-6 12-11 12-15 0-6-5-7-4-4z" fill="#22c55e"/>
  <path d="M64 42c5-5 15-3 16 3 0 3-2 7-5 10-2-4-7-5-11-13z" fill="#16a34a"/>
</svg>
