<svg xmlns="http://www.w3.org/2000/svg" viewBox="0 0 120 120">
  <defs>
    <linearGradient id="grad1" x1="0%" y1="0%" x2="100%" y2="100%">
      <stop offset="0%" stop-color="#fef3c7" />
      <stop offset="100%" stop-color="#f59e0b" />
    </linearGradient>
    <linearGradient id="grad2" x1="0%" y1="0%" x2="100%" y2="100%">
      <stop offset="0%" stop-color="#bfdbfe" />
      <stop offset="100%" stop-color="#2563eb" />
    </linearGradient>
    <linearGradient id="grad3" x1="0%" y1="0%" x2="100%" y2="100%">
      <stop offset="0%" stop-color="#ddd6fe" />
      <stop offset="100%" stop-color="#8b5cf6" />
    </linearGradient>
  </defs>
  <rect width="120" height="120" rx="24" fill="#f8fafc" />
  <path d="M0 0h60v60H0z" fill="url(#grad1)" />
  <path d="M60 0h60v60H60z" fill="url(#grad2)" />
  <path d="M0 60h60v60H0z" fill="url(#grad3)" />
  <path d="M60 60h60v60H60z" fill="#ffffff" />
  <path d="M60 47c-8-12-28-7-28 11 0 17 19 28 28 45 9-17 28-28 28-45 0-18-20-23-28-11z" fill="#ffffff" />
  <path d="M56 55c-6-9-18-5-18 3 0 8 9 14 12 21 4-8 16-14 16-21 0-8-9-10-10-3z" fill="#22c55e" />
  <path d="M62 37c8-8 24-5 26 5 1 5-3 14-9 18-4-6-12-8-14-23z" fill="#16a34a" />
</svg>
