<svg xmlns="http://www.w3.org/2000/svg" viewBox="0 0 120 120">
  <defs>
    <linearGradient id="o" x1="0%" y1="0%" x2="100%" y2="100%">
      <stop offset="0%" stop-color="#f59e0b"/>
      <stop offset="100%" stop-color="#fb923c"/>
    </linearGradient>
    <linearGradient id="b" x1="0%" y1="0%" x2="100%" y2="100%">
      <stop offset="0%" stop-color="#60a5fa"/>
      <stop offset="100%" stop-color="#2563eb"/>
    </linearGradient>
    <linearGradient id="p" x1="0%" y1="0%" x2="100%" y2="100%">
      <stop offset="0%" stop-color="#a78bfa"/>
      <stop offset="100%" stop-color="#7c3aed"/>
    </linearGradient>
    <linearGradient id="g" x1="0%" y1="0%" x2="100%" y2="100%">
      <stop offset="0%" stop-color="#22c55e"/>
      <stop offset="100%" stop-color="#16a34a"/>
    </linearGradient>
  </defs>
  <rect width="120" height="120" rx="24" fill="#ffffff"/>
  <rect x="10" y="10" width="48" height="48" rx="14" fill="url(#o)"/>
  <rect x="62" y="10" width="48" height="48" rx="14" fill="url(#b)"/>
  <rect x="10" y="62" width="48" height="48" rx="14" fill="url(#p)"/>
  <rect x="62" y="62" width="48" height="48" rx="14" fill="#ffffff"/>
  <path d="M50 46c-12-16-32-8-32 10 0 14 10 24 18 34 7-10 18-20 18-34 0-18-18-24-17-10z" fill="#ffffff"/>
  <path d="M64 33c-10-12-30-6-30 12 0 14 12 24 20 34 6-10 14-19 14-34 0-14-10-14-4-12z" fill="#ffffff"/>
  <path d="M58 49c-6-9-18-5-18 3 0 8 8 14 12 22 4-8 14-14 14-22 0-8-8-10-8-3z" fill="url(#g)"/>
  <path d="M65 42c6-6 18-4 20 4 1 4-2 10-6 13-3-5-9-7-14-17z" fill="url(#g)" opacity="0.95"/>
</svg>
